<?xml version="1.0" encoding="UTF-8" standalone="no"?>

<svg
   width="200.12668mm"
   height="197.61656mm"
   viewBox="0 0 200.12668 197.61656"
   version="1.1"
   id="svg1"
   xmlns="http://www.w3.org/2000/svg"
   xmlns:svg="http://www.w3.org/2000/svg">
  <defs
     id="defs1" />
  <g
     id="layer1"
     transform="translate(-4.9375635,-1.2499563)">
    <g
       id="g1">
      <path
         id="path4"
         d="M 89.789354,1.2689069 C 85.775952,1.0550988 81.872616,2.6590529 79.131717,5.6468766 77.397555,7.5563306 75.987431,10.937756 73.636539,16.56764 L 8.8636809,171.68113 c -2.350884,5.62988 -3.760929,9.00275 -3.907475,11.59725 -0.210331,4.07976 1.36754,8.04759 4.306778,10.83379 1.1052591,1.13978 3.4679621,2.44293 5.1529181,3.16991 1.684965,0.72703 4.24409,1.54921 5.818436,1.56564 0.979339,0.0522 1.952473,-0.005 2.903688,-0.16308 0.951191,-0.15859 1.880496,-0.41902 2.772137,-0.77437 0.300922,-0.0967 0.626963,-0.21451 0.998781,-0.36041 0.371818,-0.14589 0.789421,-0.31984 1.273472,-0.52872 L 101.68291,165.31228 65.270165,149.598 47.329984,157.33916 101.16,28.435526 c 1.11778,-2.67681 2.01386,-4.836319 2.66257,-6.644609 0.64874,-1.808262 1.05007,-3.265276 1.17838,-4.537096 0.12831,1.27182 0.52964,2.728834 1.17835,4.537096 0.64874,1.80829 1.5448,3.967799 2.66257,6.644609 L 162.65279,157.30051 73.113633,118.67193 c -0.819822,-0.35374 -1.475319,-0.63766 -2.022367,-0.83374 -0.547079,-0.19611 -0.985685,-0.30431 -1.371719,-0.30666 -0.54577,-0.0291 -1.084311,0.065 -1.579621,0.26784 -0.495295,0.20286 -0.947352,0.51458 -1.320069,0.92088 -0.27611,0.27429 -0.518065,0.66215 -0.777964,1.1898 -0.259924,0.52765 -0.537815,1.19508 -0.885823,2.02846 l -6.37936,15.26972 c -0.347984,0.83338 -0.627295,1.49971 -0.820217,2.0558 -0.192891,0.55609 -0.299361,1.00197 -0.301616,1.39439 -0.02862,0.55479 0.06623,1.10226 0.26821,1.60576 0.201958,0.50348 0.510977,0.96299 0.910666,1.34189 0.269826,0.28067 0.649016,0.5266 1.165693,0.79082 0.516709,0.26419 1.170897,0.54668 1.990719,0.90044 l 119.952905,51.75282 c 0.44975,0.19404 0.84471,0.36026 1.19962,0.5024 0.35491,0.1421 0.6695,0.26012 0.95848,0.35772 0.89062,0.35419 1.81822,0.61459 2.76779,0.77343 0.9493,0.15884 1.92086,0.2161 2.89853,0.16402 1.57428,-0.0164 4.13347,-0.83861 5.81846,-1.56564 1.68499,-0.72698 4.0478,-2.03013 5.15286,-3.16991 2.9394,-2.7862 4.51731,-6.75403 4.30676,-10.83379 -0.14631,-2.5945 -1.55649,-5.96737 -3.90735,-11.59725 L 136.36528,16.56764 c -2.35083,-5.629884 -3.76095,-9.0113094 -5.49512,-10.9207634 -2.74088,-2.9878237 -6.64421,-4.5917778 -10.65764,-4.3779697 -1.57428,0.01643 -4.13347,0.8386053 -5.81843,1.5656424 -1.6849,0.727037 -4.04766,2.0301276 -5.15291,3.1699081 -1.22075,1.1571972 -2.20136,2.5181923 -2.91652,4.0063076 -0.71513,1.488116 -1.16483,3.103323 -1.32371,4.768971 -0.1589,-1.665648 -0.6086,-3.280855 -1.32374,-4.768971 C 102.96206,8.5226497 101.98144,7.1616546 100.7607,6.0044574 99.655449,4.8646769 97.292739,3.5615863 95.607783,2.8345493 93.92285,2.1075122 91.363693,1.2853338 89.789354,1.2689069 Z M 140.2729,117.56054 c -0.38606,0.002 -0.82469,0.11055 -1.37179,0.30663 -0.54711,0.19608 -1.20269,0.48004 -2.02238,0.83377 l -28.47421,12.28343 36.41267,15.7143 3.18501,-1.37233 c 0.81996,-0.35376 1.47415,-0.63625 1.99066,-0.90047 0.51679,-0.26419 0.89589,-0.51015 1.1657,-0.79082 0.39969,-0.37888 0.7087,-0.83841 0.91063,-1.34189 0.20221,-0.50349 0.29706,-1.05097 0.26841,-1.60573 -0.003,-0.39244 -0.10875,-0.83829 -0.30178,-1.39439 -0.19275,-0.55609 -0.47229,-1.22245 -0.82024,-2.05579 l -6.3792,-15.26976 c -0.34795,-0.83337 -0.62609,-1.50081 -0.88588,-2.02846 -0.25979,-0.52765 -0.50177,-0.91551 -0.77797,-1.18977 -0.37271,-0.40632 -0.82469,-0.71805 -1.32006,-0.92091 -0.49537,-0.20286 -1.03385,-0.29688 -1.57957,-0.26781 z"
         style="fill:#ffffff;fill-opacity:1;fill-rule:nonzero;stroke:none;stroke-width:0.280432" />
    </g>
  </g>
</svg>
